<svg height='100px' width='100px'  fill="orange" xmlns="http://www.w3.org/2000/svg" xmlns:xlink="http://www.w3.org/1999/xlink" version="1.1" x="0px" y="0px" viewBox="0 0 100 100" style="enable-background:new 0 0 100 100;" xml:space="preserve"><g><path d="M88.4,50.7L76.5,6.1c-0.1-0.5-0.5-0.9-1-1c-0.5-0.2-1-0.1-1.4,0.2c-0.1,0.1-7.8,5.9-16.6,8.2c-4.2,1.1-8.7-0.1-13.5-1.5   c-4.9-1.4-10-2.8-15-1.5c-9.5,2.6-16.9,11.2-17.2,11.5c-0.3,0.4-0.4,0.9-0.3,1.4l18.9,70.4c0.2,0.7,0.8,1.1,1.4,1.1   c0.1,0,0.3,0,0.4-0.1c0.8-0.2,1.3-1,1.1-1.8L14.7,23.5c1.8-1.9,7.9-8,15.2-10c4.2-1.1,8.7,0.1,13.5,1.5c4.9,1.4,10,2.8,15,1.5   c6.8-1.8,12.9-5.5,15.8-7.5l11.1,41.5c-2.2,1.5-8.7,5.7-15.8,7.6c-4.2,1.1-8.7-0.1-13.5-1.5c-4.9-1.4-10-2.8-15-1.5   c-3.5,0.9-7.1,2.8-10.8,5.6c-0.7,0.5-0.8,1.4-0.3,2.1c0.5,0.7,1.4,0.8,2.1,0.3c3.3-2.5,6.6-4.2,9.7-5.1c4.2-1.1,8.7,0.1,13.5,1.5   c4.9,1.4,10.1,2.8,15,1.5c9.4-2.5,17.3-8.5,17.6-8.7C88.4,51.9,88.6,51.2,88.4,50.7z"></path><ellipse transform="matrix(0.9659 -0.2588 0.2588 0.9659 -10.3917 15.2683)" cx="52.8" cy="47.1" rx="2" ry="2"></ellipse><path d="M48.2,24c-0.2-0.8-1-1.3-1.8-1.1s-1.3,1-1.1,1.8l4.4,16.4c0.2,0.8,1,1.3,1.8,1.1c0.8-0.2,1.3-1,1.1-1.8L48.2,24z"></path></g></svg>