<svg height='100px' width='100px'  fill="#424242" xmlns="http://www.w3.org/2000/svg" viewBox="0 0 66 66" x="0px" y="0px"><title>Artboard 29</title><g><path d="M65.12,21a6,6,0,0,0-10.31-4.16L53,18.74V16.93a3,3,0,0,0-.87-2.11L39.3,1.89A3,3,0,0,0,37.17,1H4A3,3,0,0,0,1,4V62a3,3,0,0,0,3,3H50a3,3,0,0,0,3-3V36l10.44-10.8A6,6,0,0,0,65.12,21ZM52.07,22.57l2.16,2.09-.14.15-2.81,2.91h0L34.07,45.54a18.13,18.13,0,0,0-2.46-1.78ZM30.4,45.37a15.7,15.7,0,0,1,5.39,5.19L26.32,55Zm7,4a18.55,18.55,0,0,0-1.87-2.39L55.68,26l2.16,2.09ZM49.49,15H39V4.43ZM51,62a1,1,0,0,1-1,1H4a1,1,0,0,1-1-1V4A1,1,0,0,1,4,3H37V16a1,1,0,0,0,1,1H51v3.81L29.26,43.31l-.17.18a1.17,1.17,0,0,0-.19.3L23.73,56H8a1,1,0,0,0,0,2H24.39a1,1,0,0,0,.41-.09h0L37.44,52a1,1,0,0,0,.28-.2L51,38.08ZM62,23.81l-2.77,2.88-2.88-2.78h0l-1.75-1.7-1.12-1.08,2.78-2.88A4,4,0,0,1,59.06,17h.06A4,4,0,0,1,62,23.81Z"></path><path d="M8,25H42a1,1,0,0,0,0-2H8a1,1,0,0,0,0,2Z"></path><path d="M8,36H32a1,1,0,0,0,0-2H8a1,1,0,0,0,0,2Z"></path><path d="M8,47H24a1,1,0,0,0,0-2H8a1,1,0,0,0,0,2Z"></path><path d="M8,17H29a1,1,0,0,0,1-1V7a1,1,0,0,0-1-1H8A1,1,0,0,0,7,7v9A1,1,0,0,0,8,17ZM9,8H28v7H9Z"></path></g></svg>