<svg height='100px' width='100px'  fill="#0059B3" xmlns="http://www.w3.org/2000/svg" xmlns:xlink="http://www.w3.org/1999/xlink" version="1.1" x="0px" y="0px" viewBox="0 0 90 90" enable-background="new 0 0 90 90" xml:space="preserve"><path fill-rule="evenodd" clip-rule="evenodd" d="M4.76,12.569c-0.53-0.56-0.843-1.237-0.937-2.032  C3.694,9.558,3.938,8.678,4.555,7.898c0.614-0.77,1.411-1.208,2.388-1.316C7.92,6.452,8.794,6.695,9.563,7.31  C9.691,7.418,9.814,7.525,9.93,7.633L29.494,28.25c2.463-0.997,4.459-1.437,5.987-1.323l0.028,0.05l11.609,0.84  c1.604,0.324,2.756,1.219,3.454,2.688l9.022,13.414c0.318,0.444,0.518,0.968,0.598,1.57c0.108,0.976-0.139,1.85-0.742,2.621  c-0.596,0.782-1.384,1.231-2.361,1.35c-0.996,0.106-1.881-0.138-2.652-0.732c-0.308-0.24-0.562-0.514-0.767-0.82l-8.847-13.079  l-4.698-0.337l8.476,14.127c1.174,2.171,2.021,4.179,2.546,6.022c1.106,3.187,2.563,5.185,4.364,5.994  c2.908,0.575,6.866-1.356,11.878-5.792l0.015,0.017c0.069-0.057,0.143-0.113,0.223-0.171c0.791-0.592,1.677-0.815,2.66-0.669  c0.966,0.125,1.746,0.581,2.338,1.372c0.594,0.788,0.816,1.675,0.669,2.66c-0.136,0.857-0.518,1.579-1.147,2.167  c-7.656,6.774-14.247,9.087-19.774,6.934c-3.552-2.244-6.406-5.091-8.564-8.545c-3.325,7.04-1.598,13.34,5.186,18.893  c0.165,0.153,0.324,0.321,0.476,0.509c0.469,0.564,0.734,1.198,0.799,1.897c0.023,0.225,0.024,0.456,0.006,0.693  c-0.096,0.99-0.522,1.799-1.285,2.426c-0.749,0.618-1.617,0.881-2.606,0.786c-0.736-0.07-1.375-0.327-1.918-0.771l-0.017,0.013  c-1.242-1.023-2.368-2.082-3.376-3.174c-0.198-0.215-0.391-0.434-0.583-0.652c-6.311-7.276-7.5-16.005-3.571-26.184L26.556,37.972  l-3.046-5.611L4.759,12.585L4.76,12.569z"></path><path fill-rule="evenodd" clip-rule="evenodd" d="M26.319,12.975c1.308-1.68,3.02-2.642,5.135-2.885  c2.105-0.245,3.991,0.292,5.66,1.609c1.67,1.306,2.626,3.017,2.87,5.131c0.255,2.096-0.275,3.983-1.592,5.662  c-1.308,1.669-3.013,2.631-5.12,2.887c-2.103,0.234-3.99-0.297-5.661-1.593c-0.443-0.361-0.833-0.738-1.166-1.131  c-0.517-0.591-0.911-1.24-1.184-1.945c-0.268-0.642-0.44-1.333-0.519-2.072C24.477,16.531,25.002,14.644,26.319,12.975z"></path><path fill-rule="evenodd" clip-rule="evenodd" d="M66.183,53.469c-4.21,3.729-7.519,5.508-9.923,5.343  c-1.203-0.753-2.214-2.277-3.036-4.574c-0.395-1.405-0.363-2.667,0.093-3.783c1.204,0.932,2.581,1.32,4.125,1.159l0.031,0.003  c1.537-0.192,2.778-0.907,3.725-2.145l-0.019,0.031c0.945-1.205,1.33-2.569,1.156-4.095c-0.01-0.012-0.013-0.028-0.012-0.049  c-0.122-0.936-0.429-1.745-0.913-2.429c-0.02-0.023-0.034-0.041-0.043-0.053l-5.801-8.63c1.033,0.63,2.007,1.228,2.919,1.792  c3.35,2.051,5.876,3.621,7.577,4.707C75.658,46.878,82.973,52.633,88,58.009l-0.031,0.316c-1.916-0.503-3.877-0.531-5.884-0.086  c-2.407,0.524-3.733,1.619-3.977,3.283c-0.341,2.442-0.771,4.174-1.293,5.197c-0.863,1.68-2.209,2.431-4.04,2.256  c-0.263-0.025-1.227-0.224-2.89-0.595c-1.663-0.37-2.628-0.569-2.89-0.594c-0.6-0.059-1.152-0.062-1.654-0.016  c2.625-1.373,5.384-3.339,8.271-5.899c0.012-0.009,0.029-0.017,0.052-0.026c0.968-0.905,1.557-2.017,1.767-3.333l0.001-0.017  c0.225-1.551-0.131-2.943-1.063-4.181c-0.935-1.234-2.147-1.951-3.648-2.148c-1.539-0.232-2.927,0.119-4.163,1.052l0.037-0.044  c-0.023,0.019-0.047,0.038-0.069,0.057C66.4,53.294,66.288,53.372,66.183,53.469z"></path></svg>