<svg height='100px' width='100px'  fill="green" version="1.1" xmlns="http://www.w3.org/2000/svg" xmlns:xlink="http://www.w3.org/1999/xlink" x="0px" y="0px" viewBox="5.667 -5.647 90.198 100" enable-background="new 5.667 -5.647 90.198 100" xml:space="preserve"><g><path d="M95.864,55.148c0-4.656-2.366-8.655-5.818-10.163c0.466-1.346,0.707-2.797,0.707-4.275c0-6.078-3.896-10.838-8.87-10.838
		H69.924c6.788-8.474,9.904-15.65,9.271-21.359C77.981-2.388,69.448-5.516,65.051-5.647c-1.115,0.01-2.158,0.467-2.858,1.25
		c-0.745,0.83-1.077,1.938-0.923,3.021c0.029,0.226,0.626,5.603-4.687,11.321c-0.799,0.859-1.958,1.573-3.569,2.566
		c-2.482,1.523-5.878,3.612-10.218,7.71c-5.167,4.883-13.262,11.034-16.875,13.722H9.425c-1.006,0-1.952,0.393-2.658,1.103
		c-0.712,0.711-1.104,1.658-1.101,2.664l0.08,37.849c0.002,2.069,1.688,3.752,3.758,3.752h14.639
		c6.387,9.383,15.452,14.965,24.377,14.965H62.79c0.269,0,0.543-0.029,0.813-0.095c0.528,0.113,1.056,0.173,1.568,0.173h11.451
		c4.975,0,8.872-4.762,8.872-10.84c0-1.397-0.211-2.746-0.632-4.026c3.489-1.481,5.887-5.496,5.887-10.189
		c0-1.386-0.21-2.726-0.625-4.004C93.574,63.767,95.864,59.831,95.864,55.148z M84.626,69.297c0,2.697-1.448,4.71-2.743,4.71h-20.04
		c-1.297,0-2.745-2.013-2.745-4.71c0-2.666,1.415-4.659,2.7-4.705h20.131C83.212,64.638,84.626,66.631,84.626,69.297z
		 M76.624,88.226h-11.45c-1.297,0-2.744-2.016-2.744-4.713c0-0.668,0.089-1.294,0.243-1.855c0.379-0.892,0.946-1.674,1.696-2.233
		c0.214-0.158,0.384-0.354,0.519-0.565c0.095-0.022,0.192-0.054,0.286-0.054h11.45c1.295,0,2.746,2.014,2.746,4.708
		C79.37,86.21,77.919,88.226,76.624,88.226z M82.019,59.859c-0.045,0-0.089-0.009-0.136-0.009h-20.04
		c-0.045,0-0.09,0.009-0.137,0.009h-2.11c-1.298,0-2.748-2.018-2.748-4.711c0-2.697,1.45-4.713,2.748-4.713h27.396
		c1.298,0,2.748,2.016,2.748,4.713c0,2.693-1.45,4.711-2.748,4.711H82.019z M81.883,45.42h-20.04c-1.297,0-2.745-2.016-2.745-4.709
		c0-2.696,1.448-4.711,2.745-4.711h20.04c1.297,0,2.744,2.015,2.744,4.711C84.626,43.404,83.178,45.42,81.883,45.42z M61.198,30.643
		c-3.067,0.556-5.592,2.729-6.902,5.641c-0.451,0.48-0.697,1.138-0.632,1.838c-0.205,0.837-0.348,1.702-0.348,2.605
		c0,0.934,0.138,1.838,0.358,2.711c-0.546,5.689-3.203,14.148-13.984,15.688c-1.292,0.184-2.194,1.383-2.008,2.678
		c0.166,1.182,1.178,2.032,2.337,2.032c0.113,0,0.226-0.009,0.339-0.026c4.855-0.694,8.49-2.545,11.189-5.011
		c0.692,1.979,1.931,3.685,3.54,4.867c-1.14,1.712-1.775,3.783-1.775,5.966c0,4.029,2.148,7.514,5.338,9.193
		c-0.17,0.383-0.318,0.783-0.447,1.198c-0.506,1.268-0.78,2.646-0.78,4.067c0,1.411,0.274,2.791,0.783,4.058h-9.689
		c-8.499,0-15.849-6.814-20-13.334c-0.308-0.947-1.201-1.631-2.251-1.631H11.863l-0.069-33.116h15.367
		c0.507,0,0.997-0.163,1.406-0.463c2.812-2.076,12.455-9.283,18.436-14.932c3.874-3.658,6.836-5.48,9.217-6.945
		c1.869-1.149,3.483-2.141,4.852-3.615c4.608-4.963,5.921-9.979,6.245-13.121c2.2,0.812,5.197,2.887,5.788,8.198
		C73.63,13.911,69.191,21.896,61.198,30.643z"></path></g></svg>