<svg height='100px' width='100px'  fill="#0059B3" xmlns="http://www.w3.org/2000/svg" xmlns:xlink="http://www.w3.org/1999/xlink" xml:space="preserve" version="1.1" style="shape-rendering:geometricPrecision;text-rendering:geometricPrecision;image-rendering:optimizeQuality;" viewBox="0 0 846.66 846.66" x="0px" y="0px" fill-rule="evenodd" clip-rule="evenodd"><defs><style type="text/css">
   
    .fil0 {fill:#0059B3;fill-rule:nonzero}
   
  </style></defs><g><path class="fil0" d="M443.42 778.83c83.2,-4.62 158.78,-37.81 217.08,-89.91l-36.48 -36.48c-18.71,-18.71 9.71,-47.13 28.42,-28.42l36.48 36.48c52.1,-58.3 85.29,-133.88 89.91,-217.08l-51.59 0c-26.45,0 -26.45,-40.18 0,-40.18l51.6 0c-4.63,-83.2 -37.82,-158.77 -89.92,-217.08l-36.48 36.48c-18.71,18.71 -47.13,-9.71 -28.42,-28.42l36.48 -36.48c-58.3,-52.1 -133.88,-85.29 -217.08,-89.91l0 51.59c0,26.45 -40.18,26.45 -40.18,0l0 -51.59c-83.2,4.62 -158.78,37.81 -217.08,89.91l36.48 36.48c18.71,18.71 -9.71,47.13 -28.42,28.42l-36.48 -36.48c-52.1,58.3 -85.29,133.88 -89.91,217.08l51.59 0c26.45,0 26.45,40.18 0,40.18l-51.6 0c4.63,83.2 37.82,158.77 89.92,217.08l36.48 -36.48c18.71,-18.71 47.13,9.71 28.42,28.42l-36.48 36.48c58.3,52.1 133.88,85.29 217.08,89.91l0 -51.59c0,-26.45 40.18,-26.45 40.18,0l0 51.59zm101.97 -426.86c24.48,-9.92 39.57,27.26 15.07,37.21l-129.59 52.75c-13.27,5.39 -27.62,-4.66 -27.62,-18.6l-0.01 -237.39c-0.01,-26.46 40.18,-26.46 40.18,0l0 207.54 101.97 -41.51zm-122.06 -324.9c218.85,0 396.26,177.41 396.26,396.26 0,218.85 -177.41,396.26 -396.26,396.26 -218.85,0 -396.26,-177.41 -396.26,-396.26 0,-218.85 177.41,-396.26 396.26,-396.26z"></path></g></svg>